<svg width="24" height="22" viewBox="0 0 24 22" fill="none" xmlns="http://www.w3.org/2000/svg">
<path d="M12.2946 0H23.5244L23.5484 9.3247C23.5484 9.37789 23.5273 9.42889 23.4897 9.4665C23.4521 9.50411 23.4011 9.52523 23.3479 9.52523H19.4015C19.3483 9.52523 19.2973 9.50411 19.2597 9.4665C19.2221 9.42889 19.2009 9.37789 19.2009 9.3247V4.11089C19.2009 4.05771 19.1798 4.0067 19.1422 3.96909C19.1046 3.93149 19.0536 3.91036 19.0004 3.91036H9.54334C9.32276 3.91036 9.28065 3.82413 9.41701 3.65167L12.2946 0Z" fill="#109CD7"/>
<path d="M0 15.3788V15.2785L3.60355 10.8247C3.8268 10.5467 3.94512 10.5861 3.95849 10.9431C3.99458 11.8896 4.13028 12.7532 4.36557 13.5339C4.90032 15.3146 5.9384 16.4837 7.47982 17.0412C8.11216 17.2698 9.22043 17.3941 10.8046 17.4142C14.8086 17.4623 18.9462 17.4536 23.2175 17.3881C23.2443 17.3876 23.271 17.3924 23.2959 17.4024C23.3209 17.4124 23.3435 17.4272 23.3626 17.4461C23.3817 17.465 23.3968 17.4875 23.407 17.5124C23.4172 17.5372 23.4223 17.5638 23.4221 17.5907L23.392 21.0558C23.392 21.1085 23.3711 21.159 23.3338 21.1962C23.2966 21.2335 23.2461 21.2544 23.1934 21.2544C18.4876 21.2557 13.7825 21.2564 9.07805 21.2564C4.78 21.2564 1.75398 19.2972 0 15.3788Z" fill="#2F3165"/>
</svg>
