<svg width="151" height="37" viewBox="0 0 151 37" fill="none" xmlns="http://www.w3.org/2000/svg">
<path d="M53.2025 0H71.8018L72.1447 0.220584C72.1775 0.241515 72.2033 0.271502 72.2189 0.306813L80.0035 17.2276C80.0196 17.2629 80.0454 17.2927 80.0777 17.3137C80.1101 17.3347 80.1477 17.3459 80.186 17.346L82.063 17.348C82.1014 17.3481 82.1389 17.3371 82.1713 17.3165C82.2036 17.2959 82.2294 17.2665 82.2455 17.2316L90.0261 0.238632C90.0399 0.209413 90.0605 0.183829 90.0863 0.163965C90.112 0.144101 90.1423 0.13052 90.1745 0.124329C90.9004 -0.00401062 91.7487 0.102271 92.2821 0.100266C109.161 0.0989287 126.041 0.0995972 142.92 0.102271C146.319 0.102271 149.536 1.57016 149.746 5.23186C149.827 6.60617 149.506 7.80735 148.784 8.83541C148.042 9.89555 146.961 10.5921 145.541 10.9249C145.239 10.9971 145.228 11.0981 145.509 11.2277C146.414 11.6448 147.122 12.2478 147.633 13.0365C147.78 13.2625 148.166 14.1421 148.792 15.6755C149.526 17.4723 150.262 19.2697 151 21.0678V21.1841L146.165 21.2583C146.123 21.259 146.083 21.2466 146.049 21.2229C146.015 21.1992 145.989 21.1653 145.974 21.126C145.346 19.4067 144.69 17.6989 144.005 16.0024C143.109 13.7765 142.084 12.3427 139.634 12.2525C138.515 12.211 135.434 12.207 130.393 12.2404C130.34 12.241 130.29 12.2623 130.253 12.2999C130.215 12.3374 130.195 12.3881 130.195 12.441V20.9555C130.195 21.0087 130.173 21.0597 130.136 21.0973C130.098 21.1349 130.047 21.156 129.994 21.156H125.833C125.78 21.156 125.729 21.1349 125.691 21.0973C125.654 21.0597 125.632 21.0087 125.632 20.9555V8.52057C125.632 8.46739 125.654 8.41638 125.691 8.37878C125.729 8.34117 125.78 8.32004 125.833 8.32004C131.384 8.32806 136.947 8.32539 142.523 8.31202C145.437 8.304 146.012 4.48388 142.936 4.0006C142.551 3.94044 142.181 3.91036 141.825 3.91036H93.4472C93.4093 3.91034 93.3721 3.92104 93.3398 3.94124C93.3076 3.96145 93.2815 3.99035 93.2647 4.02466L85.087 21.146C85.0708 21.1801 85.0452 21.209 85.0133 21.2292C84.9813 21.2494 84.9443 21.2602 84.9065 21.2603L77.4227 21.2182C77.3853 21.2175 77.3488 21.2064 77.3173 21.1863C77.2858 21.1661 77.2605 21.1376 77.2442 21.1039L68.9282 4.03068C68.9114 3.99631 68.8855 3.96738 68.8536 3.94717C68.8217 3.92696 68.785 3.91629 68.7477 3.91638C64.1208 3.90835 59.4952 3.90635 54.871 3.91036C51.9412 3.91437 49.8396 5.19977 49.0195 8.16162C47.9727 11.9416 49.2701 17.354 54.0909 17.3861C58.6389 17.4155 63.185 17.4409 67.729 17.4623C68.0419 17.4649 68.334 17.4496 68.6053 17.4161C68.6333 17.4128 68.6616 17.4154 68.6885 17.4238C68.7154 17.4322 68.7402 17.4462 68.7614 17.4649C68.7826 17.4836 68.7996 17.5066 68.8114 17.5324C68.8232 17.5582 68.8296 17.5863 68.8299 17.6147L68.838 21.0558C68.838 21.109 68.8168 21.16 68.7792 21.1976C68.7416 21.2352 68.6906 21.2563 68.6374 21.2563C58.0908 21.2563 47.5449 21.2543 36.9996 21.2503C32.3373 21.2503 28.3106 18.2524 28.074 13.3855C27.9603 11.0513 27.9423 6.68905 28.0198 0.298792C28.0209 0.245781 28.0425 0.195296 28.08 0.158177C28.1175 0.121058 28.1679 0.100266 28.2204 0.100266H32.4255C32.4787 0.100266 32.5297 0.121393 32.5673 0.159C32.6049 0.196607 32.626 0.247613 32.626 0.300797C32.6274 5.64562 32.6494 9.55464 32.6922 12.0279C32.7524 15.5973 34.9582 17.4262 38.3392 17.4021C40.7482 17.3847 43.1553 17.4021 45.5603 17.4542C45.817 17.4596 45.8745 17.3553 45.7328 17.1414C45.3036 16.4984 44.962 15.8172 44.708 15.098C44.0002 13.0927 44.0704 10.2652 44.2729 8.17165C44.7181 3.56745 48.7347 0.332882 53.2025 0Z" fill="#2F3165"/>
<path d="M68.4219 8.20074L53.5385 8.22671C53.5086 8.22676 53.4844 8.25105 53.4845 8.28095L53.4909 11.9908C53.491 12.0207 53.5153 12.0449 53.5452 12.0448L68.4286 12.0188C68.4585 12.0188 68.4827 11.9945 68.4826 11.9646L68.4762 8.25478C68.4761 8.22488 68.4518 8.20068 68.4219 8.20074Z" fill="#2A2D67"/>
<path d="M101.033 12.2384C101.07 13.2758 101.386 14.235 101.982 15.116C103.346 17.1334 104.932 17.372 107.448 17.3941C111.888 17.4355 116.329 17.4449 120.77 17.4221C120.823 17.4221 120.874 17.4433 120.912 17.4809C120.949 17.5185 120.97 17.5695 120.97 17.6227V21.0437C120.97 21.0969 120.949 21.1479 120.912 21.1855C120.874 21.2231 120.823 21.2443 120.77 21.2443C115.803 21.2643 110.841 21.2703 105.884 21.2623C101.36 21.2563 97.4099 18.3446 96.5416 13.8707C96.2388 12.3126 96.3411 10.209 96.3651 8.42831C96.3657 8.376 96.387 8.32602 96.4246 8.28922C96.4621 8.25242 96.5128 8.23178 96.5657 8.23179L120.523 8.19971C120.577 8.19971 120.628 8.22105 120.666 8.25903C120.704 8.29701 120.726 8.34853 120.726 8.40224L120.702 11.8333C120.701 11.8862 120.68 11.9367 120.642 11.9738C120.605 12.011 120.554 12.0319 120.501 12.0319H101.234C101.207 12.0318 101.18 12.0372 101.155 12.0477C101.131 12.0582 101.108 12.0735 101.089 12.0928C101.071 12.1121 101.056 12.135 101.046 12.16C101.037 12.185 101.032 12.2117 101.033 12.2384Z" fill="#2A2D67"/>
<path d="M12.2946 0H23.5244L23.5484 9.3247C23.5484 9.37789 23.5273 9.42889 23.4897 9.4665C23.4521 9.50411 23.4011 9.52523 23.3479 9.52523H19.4015C19.3483 9.52523 19.2973 9.50411 19.2597 9.4665C19.2221 9.42889 19.2009 9.37789 19.2009 9.3247V4.11089C19.2009 4.05771 19.1798 4.0067 19.1422 3.96909C19.1046 3.93149 19.0536 3.91036 19.0004 3.91036H9.54334C9.32276 3.91036 9.28065 3.82413 9.41701 3.65167L12.2946 0Z" fill="#109CD7"/>
<path d="M0 15.3788V15.2785L3.60355 10.8247C3.8268 10.5467 3.94512 10.5861 3.95849 10.9431C3.99458 11.8896 4.13028 12.7532 4.36557 13.5339C4.90032 15.3146 5.9384 16.4837 7.47982 17.0412C8.11216 17.2698 9.22043 17.3941 10.8046 17.4142C14.8086 17.4623 18.9462 17.4536 23.2175 17.3881C23.2443 17.3876 23.271 17.3924 23.2959 17.4024C23.3209 17.4124 23.3435 17.4272 23.3626 17.4461C23.3817 17.465 23.3968 17.4875 23.407 17.5124C23.4172 17.5372 23.4223 17.5638 23.4221 17.5907L23.392 21.0558C23.392 21.1085 23.3711 21.159 23.3338 21.1962C23.2966 21.2335 23.2461 21.2544 23.1934 21.2544C18.4876 21.2557 13.7825 21.2564 9.07805 21.2564C4.78 21.2564 1.75398 19.2972 0 15.3788Z" fill="#2F3165"/>
<path d="M93.8364 36.6973H92.7836C90.3692 36.4788 88.4902 34.9307 88.9615 32.3117C89.2275 30.8318 90.154 29.918 91.7408 29.5705C93.186 29.2536 94.571 29.3967 95.8959 29.9996C95.922 30.0112 95.9453 30.0284 95.9642 30.0499C95.9831 30.0714 95.9971 30.0967 96.0053 30.1242C96.0135 30.1516 96.0157 30.1805 96.0117 30.2088C96.0077 30.2371 95.9976 30.2643 95.9821 30.2884L95.5048 31.0464C95.4788 31.0872 95.4389 31.1173 95.3926 31.1313C95.3462 31.1452 95.2964 31.1422 95.2521 31.1226C93.5396 30.3485 89.9441 30.5611 90.4354 33.4006C90.8344 35.6987 93.8484 35.7007 95.4687 34.8845C95.5142 34.8618 95.5664 34.8568 95.6151 34.8705C95.6637 34.8843 95.7053 34.9158 95.7314 34.9587L96.2007 35.7368C96.2149 35.7605 96.2241 35.7869 96.2277 35.8143C96.2312 35.8417 96.2291 35.8696 96.2214 35.8961C96.2137 35.9227 96.2005 35.9474 96.1828 35.9686C96.1651 35.9898 96.1432 36.0072 96.1184 36.0195C95.4005 36.3792 94.6399 36.6051 93.8364 36.6973Z" fill="#109CD7"/>
<path d="M80.9908 29.478H82.4447C82.4572 29.4782 82.4695 29.4819 82.4801 29.4886C82.4907 29.4953 82.4993 29.5049 82.5048 29.5161L85.8978 36.4986C85.9029 36.5089 85.9053 36.5204 85.9047 36.5319C85.9042 36.5433 85.9008 36.5545 85.8948 36.5643C85.8888 36.5741 85.8804 36.5822 85.8704 36.5879C85.8604 36.5936 85.8492 36.5967 85.8377 36.5969H84.452C84.4391 36.5971 84.4264 36.5936 84.4154 36.5868C84.4044 36.5801 84.3955 36.5704 84.3898 36.5588L83.8564 35.4318C83.8507 35.4202 83.8419 35.4105 83.8308 35.4037C83.8198 35.397 83.8071 35.3935 83.7942 35.3937H79.7375C79.7244 35.3937 79.7115 35.3975 79.7005 35.4046C79.6895 35.4117 79.6807 35.4218 79.6753 35.4338L79.154 36.5528C79.1484 36.564 79.1399 36.5736 79.1292 36.5803C79.1186 36.587 79.1064 36.5907 79.0938 36.5909L77.6981 36.6109C77.6867 36.6109 77.6755 36.6081 77.6655 36.6026C77.6555 36.5972 77.647 36.5893 77.6408 36.5797C77.6346 36.5702 77.6309 36.5592 77.6301 36.5478C77.6292 36.5365 77.6312 36.5251 77.6359 36.5147L80.9287 29.5181C80.9341 29.5062 80.9428 29.496 80.9538 29.4889C80.9649 29.4818 80.9777 29.478 80.9908 29.478ZM80.297 34.1123C80.2902 34.1267 80.2872 34.1427 80.2882 34.1586C80.2893 34.1745 80.2943 34.1899 80.3029 34.2033C80.3116 34.2167 80.3235 34.2278 80.3375 34.2353C80.3515 34.2429 80.3673 34.2468 80.3832 34.2467L83.1305 34.2306C83.1463 34.2304 83.1618 34.2263 83.1755 34.2186C83.1893 34.2109 83.2009 34.1998 83.2093 34.1864C83.2177 34.1731 83.2226 34.1578 83.2235 34.142C83.2245 34.1263 83.2214 34.1105 83.2147 34.0963L81.825 31.1886C81.8174 31.1724 81.8053 31.1588 81.7903 31.1492C81.7752 31.1396 81.7577 31.1346 81.7398 31.1346C81.7219 31.1346 81.7044 31.1396 81.6894 31.1492C81.6743 31.1588 81.6622 31.1724 81.6546 31.1886L80.297 34.1123Z" fill="#109CD7"/>
<path d="M102.632 29.478H104.088C104.101 29.4778 104.115 29.4814 104.126 29.4885C104.138 29.4956 104.148 29.5059 104.154 29.5181L107.533 36.4926C107.538 36.5036 107.541 36.5158 107.54 36.528C107.54 36.5402 107.536 36.5521 107.529 36.5625C107.523 36.573 107.514 36.5816 107.503 36.5876C107.493 36.5936 107.481 36.5968 107.468 36.5969H106.095C106.081 36.5972 106.068 36.5936 106.056 36.5865C106.044 36.5794 106.035 36.5691 106.029 36.5568L105.489 35.4338C105.483 35.4215 105.474 35.4113 105.462 35.4042C105.45 35.397 105.437 35.3934 105.423 35.3937H101.378C101.364 35.3936 101.351 35.3975 101.339 35.405C101.327 35.4125 101.318 35.4232 101.312 35.4358L100.807 36.5548C100.801 36.5674 100.792 36.5781 100.78 36.5856C100.768 36.5931 100.755 36.597 100.741 36.5969H99.355C99.3428 36.597 99.3309 36.594 99.3202 36.5883C99.3095 36.5825 99.3004 36.5741 99.2938 36.5639C99.2872 36.5537 99.2833 36.542 99.2824 36.5299C99.2815 36.5178 99.2837 36.5057 99.2888 36.4946L102.565 29.5202C102.571 29.5075 102.581 29.4968 102.592 29.4893C102.604 29.4819 102.618 29.4779 102.632 29.478ZM101.926 34.1304C101.92 34.1427 101.917 34.1563 101.918 34.1699C101.919 34.1836 101.924 34.1967 101.931 34.2081C101.939 34.2196 101.949 34.2289 101.961 34.2353C101.973 34.2417 101.986 34.2449 102 34.2447L104.787 34.2306C104.801 34.2307 104.815 34.2273 104.827 34.2207C104.839 34.214 104.849 34.2044 104.856 34.1927C104.863 34.181 104.867 34.1677 104.868 34.154C104.869 34.1403 104.866 34.1266 104.86 34.1143L103.45 31.1585C103.443 31.145 103.433 31.1337 103.42 31.1259C103.407 31.1181 103.392 31.114 103.377 31.1142C103.362 31.1144 103.347 31.1189 103.335 31.1271C103.322 31.1353 103.312 31.1468 103.305 31.1605L101.926 34.1304Z" fill="#109CD7"/>
<path d="M114.112 29.5081C119.482 29.7006 119.281 36.3562 114.306 36.5567C113.103 36.6062 112.046 36.6122 111.136 36.5748C111.084 36.5727 111.035 36.5507 110.999 36.5133C110.963 36.4759 110.943 36.4261 110.943 36.3742V29.7006C110.943 29.6487 110.963 29.5989 110.999 29.5615C111.035 29.5242 111.084 29.5021 111.136 29.5C112.004 29.4653 112.995 29.468 114.112 29.5081ZM114.36 35.3114C117.126 35.1289 117.294 31.2066 114.653 30.8215C113.966 30.7213 113.275 30.7026 112.58 30.7654C112.53 30.7699 112.483 30.7928 112.449 30.8295C112.416 30.8663 112.397 30.9142 112.397 30.9639V35.1249C112.397 35.1761 112.417 35.2254 112.452 35.2626C112.487 35.2999 112.535 35.3224 112.586 35.3255C113.134 35.3589 113.725 35.3542 114.36 35.3114Z" fill="#109CD7"/>
<path d="M123.327 35.3436H127.839C127.865 35.3436 127.891 35.3541 127.909 35.3729C127.928 35.3917 127.939 35.4172 127.939 35.4438V36.4966C127.939 36.5232 127.928 36.5487 127.909 36.5675C127.891 36.5863 127.865 36.5969 127.839 36.5969H121.873C121.846 36.5969 121.821 36.5863 121.802 36.5675C121.783 36.5487 121.772 36.5232 121.772 36.4966V29.5783C121.772 29.5517 121.783 29.5262 121.802 29.5074C121.821 29.4886 121.846 29.478 121.873 29.478H127.78C127.794 29.478 127.807 29.4807 127.82 29.486C127.832 29.4913 127.843 29.4991 127.853 29.5088C127.862 29.5185 127.869 29.5301 127.874 29.5427C127.879 29.5553 127.881 29.5688 127.881 29.5823L127.849 30.6371C127.848 30.6633 127.837 30.6883 127.818 30.7067C127.8 30.7251 127.775 30.7354 127.748 30.7354L123.327 30.7334C123.3 30.7334 123.274 30.7439 123.256 30.7627C123.237 30.7815 123.226 30.807 123.226 30.8336V32.0749C123.226 32.0882 123.229 32.1014 123.234 32.1137C123.239 32.126 123.247 32.1372 123.256 32.1465C123.266 32.1559 123.277 32.1632 123.29 32.1681C123.302 32.173 123.315 32.1754 123.329 32.1752L127.215 32.125C127.241 32.125 127.266 32.135 127.284 32.153C127.303 32.1709 127.314 32.1954 127.315 32.2213L127.347 33.2961C127.347 33.3096 127.345 33.3231 127.34 33.3356C127.335 33.3481 127.327 33.3595 127.318 33.3691C127.308 33.3786 127.297 33.3861 127.284 33.3912C127.272 33.3962 127.258 33.3987 127.245 33.3984L123.327 33.3603C123.3 33.3603 123.274 33.3709 123.256 33.3897C123.237 33.4085 123.226 33.434 123.226 33.4606V35.2433C123.226 35.2699 123.237 35.2954 123.256 35.3142C123.274 35.333 123.3 35.3436 123.327 35.3436Z" fill="#109CD7"/>
<path d="M138.341 31.6097L135.922 33.9399C135.908 33.9536 135.89 33.9613 135.87 33.9613C135.851 33.9613 135.832 33.9536 135.818 33.9399L133.378 31.5917C133.367 31.582 133.354 31.5756 133.34 31.5732C133.325 31.5708 133.311 31.5726 133.298 31.5783C133.285 31.5841 133.273 31.5935 133.265 31.6055C133.258 31.6175 133.253 31.6315 133.253 31.6458L133.299 36.5227C133.299 36.5424 133.291 36.5613 133.278 36.5752C133.264 36.5891 133.245 36.5969 133.225 36.5969L131.892 36.5989C131.872 36.5989 131.853 36.5911 131.839 36.5772C131.825 36.5633 131.817 36.5444 131.817 36.5247L131.827 29.5563C131.827 29.5366 131.835 29.5177 131.849 29.5038C131.863 29.4899 131.882 29.4821 131.902 29.4821L133.245 29.4761C133.265 29.4762 133.284 29.4842 133.297 29.4981L135.808 32.0068C135.822 32.0205 135.841 32.0282 135.86 32.0282C135.88 32.0282 135.898 32.0205 135.912 32.0068L138.421 29.5001C138.435 29.4862 138.453 29.4783 138.473 29.4781H139.847C139.866 29.4781 139.885 29.4859 139.899 29.4998C139.913 29.5137 139.921 29.5326 139.921 29.5523V36.5227C139.921 36.5424 139.913 36.5613 139.899 36.5752C139.885 36.5891 139.866 36.5969 139.847 36.5969H138.541C138.522 36.5969 138.503 36.5891 138.489 36.5752C138.475 36.5613 138.467 36.5424 138.467 36.5227V31.6639C138.467 31.6491 138.463 31.6346 138.455 31.6222C138.447 31.6098 138.436 31.6001 138.422 31.5943C138.408 31.5885 138.393 31.5869 138.379 31.5896C138.364 31.5924 138.351 31.5994 138.341 31.6097Z" fill="#109CD7"/>
<path d="M147.284 33.1919L149.219 29.5843C149.237 29.5521 149.263 29.5252 149.294 29.5065C149.326 29.4878 149.362 29.478 149.398 29.478H150.587C150.622 29.4779 150.657 29.4871 150.688 29.5046C150.718 29.5221 150.744 29.5474 150.761 29.5779C150.779 29.6085 150.788 29.6431 150.788 29.6784C150.788 29.7136 150.779 29.7483 150.762 29.7788L147.868 34.8001C147.851 34.8309 147.842 34.8643 147.842 34.9004V36.3964C147.842 36.4495 147.821 36.5005 147.783 36.5382C147.746 36.5758 147.694 36.5969 147.641 36.5969H146.605C146.578 36.5969 146.552 36.5917 146.527 36.5816C146.503 36.5715 146.481 36.5567 146.462 36.538C146.443 36.5194 146.429 36.4973 146.419 36.4729C146.409 36.4486 146.404 36.4226 146.404 36.3964C146.406 35.6504 146.498 35.0147 146.101 34.3389C145.21 32.8189 144.322 31.2989 143.438 29.7788C143.321 29.5783 143.378 29.478 143.611 29.478H144.804C144.84 29.4779 144.875 29.4876 144.906 29.5059C144.937 29.5243 144.963 29.5506 144.98 29.5823L146.929 33.1919C147.048 33.4111 147.167 33.4111 147.284 33.1919Z" fill="#109CD7"/>
</svg>
