<svg width="151" height="38" viewBox="0 0 151 38" fill="none" xmlns="http://www.w3.org/2000/svg">
<path d="M12.3018 0H23.5417L23.5256 9.42538C23.5256 9.47886 23.5046 9.53014 23.4672 9.56795C23.4297 9.60575 23.379 9.627 23.326 9.627H19.3966C19.3431 9.627 19.2918 9.60575 19.254 9.56795C19.2162 9.53014 19.195 9.47886 19.195 9.42538V4.12902C19.195 4.07555 19.1737 4.02427 19.1359 3.98646C19.0981 3.94865 19.0468 3.92741 18.9934 3.92741L9.50145 3.94152C9.27833 3.94287 9.23599 3.85617 9.37444 3.68144L12.3018 0Z" fill="#C6A180"/>
<path d="M53.1805 0H71.7793C72.0266 0.112903 72.1717 0.217069 72.2148 0.312499C74.8156 6.01276 77.413 11.7164 80.0071 17.4234C80.0227 17.4583 80.0484 17.4879 80.0809 17.5087C80.1135 17.5294 80.1516 17.5404 80.1905 17.5403H82.0514C82.09 17.5402 82.1278 17.5289 82.1603 17.5079C82.1928 17.4868 82.2187 17.4567 82.2349 17.4213L90.0212 0.247983C90.0349 0.217606 90.0558 0.191059 90.0822 0.170671C90.1086 0.150282 90.1395 0.136677 90.1724 0.131048C91.0454 -0.0141129 92.0675 0.100806 92.7147 0.100806C109.469 0.0994622 126.223 0.100134 142.979 0.102822C146.614 0.102822 149.904 1.90927 149.753 5.85684C149.648 8.58264 148.086 10.4435 145.438 11.0665C145.261 11.1088 145.293 11.252 145.438 11.3145C146.667 11.8481 147.551 12.7769 148.09 14.1008C149.063 16.4932 150.033 18.8871 151.001 21.2822V21.4012L146.178 21.4677C146.137 21.4683 146.096 21.4559 146.061 21.4325C146.027 21.409 146.001 21.3755 145.987 21.3367C145.231 19.3192 144.448 17.2809 143.638 15.2217C142.61 12.6129 140.569 12.3669 137.817 12.3548C135.342 12.3427 132.864 12.342 130.386 12.3528C130.332 12.3533 130.281 12.3748 130.243 12.4126C130.206 12.4503 130.184 12.5013 130.184 12.5544V21.2016C130.184 21.2547 130.163 21.3057 130.126 21.3434C130.089 21.3812 130.038 21.4027 129.985 21.4032L125.819 21.4294C125.793 21.4294 125.766 21.4242 125.742 21.414C125.717 21.4038 125.695 21.389 125.676 21.3702C125.657 21.3515 125.643 21.3292 125.633 21.3048C125.623 21.2803 125.618 21.2542 125.618 21.2278L125.632 8.61893C125.632 8.56546 125.653 8.51418 125.691 8.47637C125.729 8.43856 125.78 8.41732 125.834 8.41732C131.258 8.41732 136.741 8.41732 142.281 8.41732C142.51 8.41732 142.861 8.35818 143.336 8.2399C145.448 7.70966 145.533 4.85281 143.553 4.16733C143.213 4.0504 142.559 3.99058 141.59 3.9879C121.888 3.92741 108.715 3.91061 102.072 3.93749C97.5689 3.95631 94.6986 3.95362 93.4607 3.92943C93.4218 3.92813 93.3834 3.93832 93.3501 3.95873C93.3167 3.97915 93.29 4.0089 93.2732 4.04435L85.0938 21.3528C85.0776 21.3878 85.0517 21.4174 85.0192 21.4381C84.9866 21.4588 84.9489 21.4698 84.9103 21.4697L77.4345 21.4637C77.3965 21.4638 77.3593 21.4532 77.3272 21.4332C77.2951 21.4132 77.2694 21.3847 77.2531 21.3508L68.9123 4.04435C68.8955 4.01039 68.8695 3.98182 68.8375 3.96187C68.8054 3.94192 68.7685 3.93138 68.7309 3.93144C64.2417 3.93144 59.7309 3.93144 55.1987 3.93144C52.2269 3.93144 49.985 4.98588 49.0616 8.04434C48.0233 11.4818 48.8761 16.4153 52.8721 17.4173C53.3116 17.5275 54.0253 17.584 55.0132 17.5867C59.5562 17.5934 64.0992 17.594 68.6422 17.5887C68.6957 17.5887 68.7469 17.6099 68.7847 17.6477C68.8226 17.6855 68.8438 17.7368 68.8438 17.7903V21.2701C68.8438 21.3236 68.8226 21.3749 68.7847 21.4127C68.7469 21.4505 68.6957 21.4717 68.6422 21.4717C58.0199 21.469 47.4184 21.469 36.8378 21.4717C32.9285 21.4717 29.4669 19.2419 28.3842 15.4012C28.1718 14.6458 28.0576 13.4415 28.0415 11.7883C28.0065 7.95899 28.0005 4.1297 28.0233 0.300403C28.0238 0.247282 28.0453 0.196517 28.0831 0.159143C28.1208 0.121768 28.1718 0.100804 28.2249 0.100806H32.4628C32.4895 0.100808 32.5159 0.106039 32.5404 0.116196C32.565 0.126354 32.5874 0.141237 32.6061 0.159985C32.6249 0.178733 32.6397 0.200974 32.6497 0.225422C32.6597 0.24987 32.6647 0.27604 32.6644 0.302419C32.6402 4.0215 32.6443 7.71773 32.6765 11.3911C32.7007 14.1492 33.3459 16.4153 36.1624 17.3125C36.7578 17.502 37.655 17.5961 38.8539 17.5947C41.0676 17.5947 43.2813 17.5893 45.4951 17.5786C45.737 17.5772 45.7941 17.4744 45.6664 17.2701C44.7578 15.8145 44.2733 14.2379 44.2128 12.5403C44.1402 10.4516 44.0172 7.85482 44.8559 5.81047C46.243 2.4254 49.5575 0.336693 53.1805 0Z" fill="#2F3165"/>
<path d="M68.3719 8.26611H53.5897C53.524 8.26611 53.4707 8.31937 53.4707 8.38506V12.0302C53.4707 12.0959 53.524 12.1492 53.5897 12.1492H68.3719C68.4376 12.1492 68.4908 12.0959 68.4908 12.0302V8.38506C68.4908 8.31937 68.4376 8.26611 68.3719 8.26611Z" fill="#2A2D67"/>
<path d="M101.018 12.3588C101.086 13.59 101.516 14.6969 102.306 15.6794C103.633 17.3306 105.038 17.5826 107.258 17.5867C111.777 17.5934 116.293 17.594 120.806 17.5887C120.86 17.5887 120.911 17.6099 120.949 17.6477C120.986 17.6855 121.008 17.7368 121.008 17.7903V21.2661C121.008 21.3196 120.986 21.3708 120.949 21.4086C120.911 21.4465 120.86 21.4677 120.806 21.4677C113.626 21.4785 108.638 21.4778 105.842 21.4657C100.766 21.4435 96.7275 17.8609 96.3909 12.7903C96.3021 11.4368 96.3075 9.99192 96.407 8.45563C96.4101 8.4043 96.4325 8.3561 96.4696 8.32087C96.5067 8.28564 96.5557 8.26605 96.6066 8.26611H120.506C120.559 8.26611 120.61 8.28735 120.648 8.32516C120.686 8.36297 120.707 8.41425 120.707 8.46773V11.9455C120.707 11.999 120.686 12.0503 120.648 12.0881C120.61 12.1259 120.559 12.1472 120.506 12.1472H101.219C101.192 12.1471 101.165 12.1526 101.14 12.1634C101.115 12.1742 101.092 12.1899 101.073 12.2097C101.054 12.2295 101.04 12.253 101.03 12.2786C101.021 12.3042 101.016 12.3315 101.018 12.3588Z" fill="#2A2D67"/>
<path d="M10.3632 17.5825C14.6333 17.5946 18.9048 17.596 23.1777 17.5866C23.2312 17.5866 23.2824 17.6078 23.3202 17.6456C23.3581 17.6834 23.3793 17.7347 23.3793 17.7882V21.27C23.3793 21.2967 23.3741 21.3231 23.3639 21.3477C23.3538 21.3722 23.3389 21.3946 23.3201 21.4133C23.3014 21.4321 23.2791 21.4469 23.2547 21.4569C23.2302 21.4669 23.2041 21.4719 23.1777 21.4716C19.0702 21.469 14.9546 21.4696 10.8309 21.4737C8.90083 21.4763 7.56078 21.4018 6.81078 21.2499C3.71536 20.6262 1.45125 18.7546 0.0184598 15.635C0.00276972 15.6011 -0.00309198 15.5634 0.00154142 15.5264C0.00617481 15.4893 0.0211173 15.4543 0.0446695 15.4253L3.67974 10.8487C3.87463 10.6027 3.97006 10.637 3.96603 10.9515C3.95797 11.7418 4.04668 12.5167 4.23216 13.2761C4.6999 15.1833 5.77046 16.6491 7.6253 17.2842C8.19385 17.479 9.10648 17.5785 10.3632 17.5825Z" fill="#2F3165"/>
<path d="M55.9273 37.0967H55.6753C50.4475 37.1129 49.764 30.4052 54.7661 29.754C56.0295 29.5887 57.2331 29.7755 58.3769 30.3145C58.4024 30.3265 58.4251 30.3438 58.4435 30.3651C58.4619 30.3864 58.4757 30.4114 58.4838 30.4384C58.492 30.4654 58.4944 30.4938 58.491 30.5217C58.4875 30.5497 58.4782 30.5766 58.4636 30.6008L57.9959 31.377C57.9702 31.4197 57.9297 31.4515 57.8822 31.4663C57.8346 31.4812 57.7833 31.4781 57.7378 31.4576C56.5201 30.8958 55.3252 30.8656 54.1532 31.3669C52.9011 31.9032 52.5544 33.4717 53.2278 34.5403C54.2197 36.1109 56.4576 35.9798 57.9515 35.2359C57.9968 35.2129 58.049 35.2081 58.0977 35.2223C58.1464 35.2366 58.1879 35.2688 58.2136 35.3125L58.6915 36.1129C58.7056 36.1369 58.7147 36.1636 58.7181 36.1912C58.7216 36.2189 58.7194 36.2469 58.7116 36.2736C58.7039 36.3002 58.6908 36.3249 58.6731 36.3462C58.6554 36.3675 58.6335 36.3848 58.6088 36.3971C57.766 36.8165 56.8722 37.0497 55.9273 37.0967Z" fill="#C6A180"/>
<path d="M66.109 37.0967H65.6654C63.1197 36.809 61.859 35.5375 61.8832 33.2822C61.9255 29.4999 67.1291 28.5281 69.1936 31.0886C70.4981 32.7076 70.1573 35.1672 68.4396 36.389C67.8684 36.7963 67.0915 37.0322 66.109 37.0967ZM68.5545 33.3876C68.5556 32.7486 68.2778 32.1353 67.7821 31.6826C67.2865 31.2299 66.6136 30.9749 65.9116 30.9737C65.5639 30.9731 65.2196 31.0348 64.8982 31.1553C64.5768 31.2758 64.2847 31.4528 64.0385 31.6761C63.7923 31.8994 63.5968 32.1646 63.4633 32.4567C63.3297 32.7488 63.2607 33.062 63.2602 33.3784C63.259 34.0173 63.5369 34.6306 64.0325 35.0833C64.5282 35.536 65.2011 35.791 65.9031 35.7922C66.2508 35.7929 66.5951 35.7311 66.9165 35.6106C67.2379 35.4901 67.53 35.3131 67.7762 35.0899C68.0224 34.8666 68.2179 34.6013 68.3514 34.3092C68.4849 34.0172 68.554 33.704 68.5545 33.3876Z" fill="#C6A180"/>
<path d="M77.5556 32.3425L80.0919 29.8062C80.0977 29.8004 80.1047 29.7959 80.1123 29.7927C80.1199 29.7896 80.128 29.788 80.1363 29.7881H81.483C81.4912 29.7881 81.4994 29.7897 81.507 29.7928C81.5145 29.796 81.5214 29.8006 81.5272 29.8064C81.533 29.8122 81.5376 29.8191 81.5408 29.8267C81.5439 29.8343 81.5455 29.8424 81.5455 29.8506V36.9332C81.5455 36.9498 81.539 36.9657 81.5272 36.9774C81.5155 36.9891 81.4996 36.9957 81.483 36.9957H80.1463C80.1298 36.9957 80.1139 36.9891 80.1021 36.9774C80.0904 36.9657 80.0838 36.9498 80.0838 36.9332V31.9897C80.0839 31.9773 80.0803 31.9651 80.0734 31.9548C80.0666 31.9445 80.0568 31.9364 80.0453 31.9316C80.0338 31.9269 80.0212 31.9257 80.0091 31.9281C79.9969 31.9305 79.9857 31.9365 79.977 31.9453L77.5496 34.2982C77.5438 34.304 77.5369 34.3087 77.5292 34.3118C77.5216 34.315 77.5135 34.3166 77.5052 34.3166C77.497 34.3166 77.4888 34.315 77.4812 34.3118C77.4736 34.3087 77.4667 34.304 77.4609 34.2982L75.0455 31.9453C75.0368 31.9365 75.0256 31.9305 75.0135 31.9281C75.0013 31.9257 74.9887 31.9269 74.9772 31.9316C74.9658 31.9364 74.956 31.9445 74.9491 31.9548C74.9423 31.9651 74.9386 31.9773 74.9387 31.9897V36.9332C74.9387 36.9498 74.9321 36.9657 74.9204 36.9774C74.9087 36.9891 74.8928 36.9957 74.8762 36.9957H73.5254C73.5088 36.9957 73.4929 36.9891 73.4812 36.9774C73.4695 36.9657 73.4629 36.9498 73.4629 36.9332L73.479 29.8506C73.479 29.8424 73.4806 29.8343 73.4838 29.8267C73.4869 29.8191 73.4915 29.8122 73.4973 29.8064C73.5031 29.8006 73.51 29.796 73.5176 29.7928C73.5252 29.7897 73.5333 29.7881 73.5415 29.7881H74.8923C74.9005 29.788 74.9087 29.7896 74.9163 29.7927C74.9239 29.7959 74.9308 29.8004 74.9367 29.8062L77.4669 32.3425C77.4727 32.3484 77.4796 32.353 77.4872 32.3562C77.4949 32.3594 77.503 32.361 77.5113 32.361C77.5195 32.361 77.5277 32.3594 77.5353 32.3562C77.5429 32.353 77.5498 32.3484 77.5556 32.3425Z" fill="#C6A180"/>
<path d="M105.593 35.6853H110.125C110.151 35.6853 110.176 35.6957 110.195 35.7142C110.213 35.7327 110.224 35.7578 110.224 35.784V36.8969C110.224 36.9231 110.213 36.9483 110.195 36.9668C110.176 36.9853 110.151 36.9957 110.125 36.9957H104.179C104.153 36.9957 104.128 36.9853 104.11 36.9668C104.091 36.9483 104.081 36.9231 104.081 36.8969L104.063 29.8869C104.062 29.8739 104.065 29.8611 104.07 29.8491C104.075 29.8371 104.082 29.8262 104.091 29.817C104.101 29.8078 104.112 29.8006 104.123 29.7956C104.135 29.7906 104.148 29.7881 104.161 29.7881H110.03C110.056 29.7881 110.081 29.7982 110.099 29.8163C110.118 29.8344 110.128 29.859 110.129 29.8849L110.139 30.9736C110.139 30.9867 110.137 30.9998 110.132 31.012C110.127 31.0242 110.12 31.0353 110.111 31.0447C110.102 31.0541 110.091 31.0616 110.079 31.0667C110.066 31.0718 110.053 31.0744 110.04 31.0744L105.601 31.0421C105.587 31.0418 105.574 31.0443 105.562 31.0492C105.55 31.0542 105.538 31.0616 105.529 31.071C105.519 31.0804 105.512 31.0917 105.507 31.104C105.502 31.1164 105.5 31.1296 105.5 31.1429L105.508 32.4111C105.508 32.4373 105.518 32.4624 105.537 32.4809C105.556 32.4994 105.581 32.5099 105.607 32.5099H109.52C109.533 32.5099 109.546 32.5124 109.558 32.5174C109.57 32.5223 109.581 32.5296 109.59 32.5388C109.599 32.548 109.606 32.5589 109.611 32.5708C109.616 32.5828 109.619 32.5957 109.619 32.6086V33.6207C109.619 33.6469 109.609 33.6721 109.59 33.6906C109.571 33.7091 109.546 33.7195 109.52 33.7195H105.597C105.571 33.7195 105.545 33.7299 105.527 33.7485C105.508 33.767 105.498 33.7921 105.498 33.8183L105.494 35.5865C105.494 35.6127 105.504 35.6378 105.523 35.6563C105.541 35.6748 105.567 35.6853 105.593 35.6853Z" fill="#C6A180"/>
<path d="M116.656 35.1046L118.812 29.8304C118.817 29.8177 118.826 29.8069 118.837 29.7993C118.849 29.7918 118.862 29.7879 118.876 29.7881H120.344C120.355 29.7881 120.367 29.791 120.377 29.7964C120.387 29.8019 120.395 29.8098 120.402 29.8195C120.408 29.8291 120.411 29.8401 120.412 29.8515C120.413 29.863 120.411 29.8744 120.406 29.8849L117.33 36.9554C117.324 36.9674 117.316 36.9776 117.304 36.9848C117.293 36.9919 117.28 36.9957 117.267 36.9957H115.914C115.901 36.9957 115.888 36.9919 115.877 36.9848C115.866 36.9776 115.857 36.9674 115.852 36.9554L112.783 29.8849C112.779 29.8744 112.777 29.863 112.778 29.8515C112.778 29.8401 112.782 29.8291 112.788 29.8195C112.795 29.8098 112.803 29.8019 112.813 29.7964C112.823 29.791 112.834 29.7881 112.846 29.7881H114.312C114.325 29.7879 114.339 29.7918 114.35 29.7993C114.362 29.8069 114.371 29.8177 114.376 29.8304L116.531 35.1046C116.537 35.1167 116.546 35.1269 116.557 35.134C116.568 35.1412 116.581 35.145 116.594 35.145C116.607 35.145 116.62 35.1412 116.631 35.134C116.642 35.1269 116.651 35.1167 116.656 35.1046Z" fill="#C6A180"/>
<path d="M124.929 32.5099H128.835C128.858 32.5099 128.881 32.5192 128.897 32.5358C128.914 32.5525 128.923 32.575 128.923 32.5986V33.6308C128.923 33.6543 128.914 33.6769 128.897 33.6935C128.881 33.7102 128.858 33.7195 128.835 33.7195H124.935C124.924 33.7195 124.912 33.7218 124.901 33.7263C124.891 33.7307 124.881 33.7373 124.873 33.7455C124.864 33.7537 124.858 33.7635 124.853 33.7743C124.849 33.7851 124.847 33.7966 124.847 33.8082L124.831 35.5965C124.831 35.6201 124.84 35.6426 124.856 35.6593C124.873 35.6759 124.896 35.6853 124.919 35.6853H129.502C129.514 35.6852 129.526 35.6877 129.537 35.6924C129.548 35.6971 129.558 35.704 129.566 35.7126C129.574 35.7213 129.581 35.7316 129.585 35.7428C129.589 35.754 129.591 35.766 129.591 35.778L129.548 36.9111C129.547 36.9339 129.537 36.9554 129.521 36.9712C129.504 36.987 129.482 36.9958 129.46 36.9957H123.468C123.456 36.9957 123.444 36.9934 123.434 36.989C123.423 36.9845 123.413 36.978 123.405 36.9697C123.397 36.9615 123.39 36.9517 123.386 36.941C123.381 36.9302 123.379 36.9187 123.379 36.907V29.8768C123.379 29.8651 123.381 29.8536 123.386 29.8428C123.39 29.8321 123.397 29.8223 123.405 29.8141C123.413 29.8058 123.423 29.7993 123.434 29.7948C123.444 29.7904 123.456 29.7881 123.468 29.7881H129.389C129.413 29.7881 129.435 29.7974 129.452 29.8141C129.468 29.8307 129.478 29.8533 129.478 29.8768V30.9655C129.478 30.989 129.468 31.0116 129.452 31.0282C129.435 31.0449 129.413 31.0542 129.389 31.0542L124.929 31.0502C124.906 31.0502 124.883 31.0595 124.867 31.0762C124.85 31.0928 124.841 31.1154 124.841 31.1389V32.4211C124.841 32.4447 124.85 32.4672 124.867 32.4839C124.883 32.5005 124.906 32.5099 124.929 32.5099Z" fill="#C6A180"/>
<path d="M138.605 31.9818C138.636 31.9981 138.67 32.0063 138.705 32.0054C138.741 32.0045 138.775 31.9947 138.805 31.9769C138.835 31.959 138.86 31.9337 138.877 31.9035C138.894 31.8733 138.903 31.8391 138.903 31.8043V29.9898C138.903 29.9363 138.924 29.8851 138.962 29.8473C139 29.8094 139.051 29.7882 139.105 29.7882H140.163C140.217 29.7882 140.268 29.8094 140.306 29.8473C140.343 29.8851 140.365 29.9363 140.365 29.9898V36.7942C140.365 36.8477 140.343 36.899 140.306 36.9368C140.268 36.9746 140.217 36.9959 140.163 36.9959H139.105C139.051 36.9959 139 36.9746 138.962 36.9368C138.924 36.899 138.903 36.8477 138.903 36.7942V33.8164C138.903 33.7798 138.893 33.7439 138.874 33.7126C138.855 33.6813 138.828 33.6559 138.796 33.639L134.764 31.516C134.733 31.4997 134.699 31.4916 134.664 31.4924C134.629 31.4933 134.595 31.5031 134.566 31.521C134.536 31.5389 134.511 31.5641 134.494 31.5943C134.477 31.6245 134.468 31.6587 134.468 31.6934V36.7942C134.468 36.8477 134.446 36.899 134.408 36.9368C134.371 36.9746 134.319 36.9959 134.266 36.9959H133.207C133.154 36.9959 133.103 36.9746 133.065 36.9368C133.027 36.899 133.006 36.8477 133.006 36.7942V30.0241C133.006 29.9738 133.025 29.9253 133.058 29.8881C133.092 29.8508 133.138 29.8275 133.187 29.8225C133.455 29.7943 133.72 29.7781 133.984 29.7741C134.263 29.7701 134.539 29.8386 134.812 29.9797C136.089 30.6383 137.353 31.3057 138.605 31.9818Z" fill="#C6A180"/>
<path d="M146.323 31.0461L143.845 31.0703C143.832 31.0706 143.818 31.0682 143.806 31.0633C143.793 31.0583 143.782 31.0509 143.772 31.0415C143.763 31.0321 143.755 31.0209 143.75 31.0086C143.745 30.9962 143.742 30.9829 143.742 30.9695V29.8889C143.742 29.8622 143.753 29.8365 143.772 29.8176C143.791 29.7987 143.816 29.7881 143.843 29.7881H150.341C150.368 29.7881 150.393 29.7987 150.412 29.8176C150.431 29.8365 150.442 29.8622 150.442 29.8889L150.454 30.9736C150.454 30.9871 150.452 31.0006 150.447 31.0132C150.442 31.0258 150.434 31.0373 150.424 31.0469C150.415 31.0565 150.403 31.0641 150.391 31.0691C150.378 31.0742 150.365 31.0767 150.351 31.0764L147.926 31.0603C147.899 31.0603 147.873 31.0709 147.854 31.0898C147.835 31.1087 147.825 31.1343 147.825 31.1611V36.8949C147.825 36.9217 147.814 36.9473 147.795 36.9662C147.776 36.9851 147.751 36.9957 147.724 36.9957H146.484C146.457 36.9957 146.432 36.9851 146.413 36.9662C146.394 36.9473 146.383 36.9217 146.383 36.8949L146.426 31.147C146.426 31.1335 146.423 31.1203 146.418 31.1079C146.413 31.0955 146.405 31.0843 146.395 31.0749C146.386 31.0656 146.374 31.0582 146.362 31.0532C146.35 31.0483 146.336 31.0459 146.323 31.0461Z" fill="#C6A180"/>
<path d="M95.1919 37.0966H95.1415L94.5609 36.5099C94.5292 36.4777 94.4877 36.457 94.4431 36.4512C94.3985 36.4453 94.3533 36.4547 94.3149 36.4777C93.7907 36.7908 93.2262 36.9972 92.6214 37.0966H91.8653C90.6919 36.9797 89.5609 36.2337 89.7665 34.9273C89.866 34.2996 90.2605 33.8097 90.95 33.4575C90.9742 33.4449 90.9956 33.4277 91.013 33.4067C91.0304 33.3858 91.0435 33.3617 91.0514 33.3357C91.0593 33.3098 91.0619 33.2826 91.059 33.2557C91.0561 33.2288 91.0479 33.2028 91.0347 33.1793C90.9809 33.0839 90.9231 32.9958 90.8613 32.9152C90.1415 31.9878 90.5468 30.893 91.5589 30.4817C93.6153 29.641 95.7444 31.643 93.3673 33.3708C93.3434 33.3884 93.3235 33.411 93.3093 33.4371C93.2951 33.4632 93.2868 33.4921 93.2851 33.5218C93.2834 33.5515 93.2882 33.5811 93.2993 33.6087C93.3104 33.6363 93.3274 33.6611 93.3492 33.6813L94.1214 34.4011C94.1464 34.4245 94.177 34.4411 94.2102 34.4494C94.2434 34.4577 94.2782 34.4574 94.3113 34.4485C94.3444 34.4397 94.3747 34.4225 94.3993 34.3987C94.4239 34.3748 94.4421 34.3451 94.452 34.3124L94.6133 33.7741C94.621 33.7484 94.6336 33.7246 94.6505 33.7039C94.6673 33.6832 94.6881 33.666 94.7116 33.6534C94.735 33.6409 94.7607 33.6331 94.7871 33.6306C94.8135 33.6282 94.8401 33.631 94.8653 33.639L95.6758 33.891C95.7023 33.8995 95.7267 33.9134 95.7476 33.9317C95.7685 33.9501 95.7854 33.9725 95.7973 33.9976C95.8092 34.0227 95.8158 34.05 95.8168 34.0778C95.8177 34.1056 95.813 34.1333 95.8028 34.1591L95.325 35.3607C95.3101 35.3991 95.3074 35.4412 95.3171 35.4812C95.3268 35.5212 95.3486 35.5573 95.3794 35.5845L95.8734 36.0281C95.9129 36.0642 95.9368 36.1143 95.9398 36.1675C95.9428 36.2207 95.9248 36.2727 95.8895 36.3124L95.1919 37.0966ZM93.2181 31.5785C92.1395 30.8305 91.2988 31.9434 92.2565 32.6269C92.2848 32.6472 92.3179 32.6597 92.3526 32.6633C92.3872 32.6668 92.4222 32.6612 92.454 32.647C92.8263 32.4857 93.1039 32.2136 93.2867 31.8305C93.3069 31.7875 93.3111 31.7386 93.2986 31.6924C93.286 31.6463 93.2575 31.606 93.2181 31.5785ZM91.444 34.4797C90.9379 35.2962 91.2585 35.8245 92.1395 35.9232C92.5495 35.9689 92.9413 35.8977 93.3149 35.7095C93.3439 35.695 93.3689 35.6738 93.3879 35.6475C93.4069 35.6213 93.4193 35.5909 93.4241 35.5588C93.4288 35.5268 93.4258 35.4941 93.4152 35.4634C93.4046 35.4328 93.3868 35.4052 93.3633 35.3829L92.3129 34.3829C91.9729 34.0617 91.6832 34.0939 91.444 34.4797Z" fill="#C6A180"/>
</svg>
