<svg width="151" height="49" viewBox="0 0 151 49" fill="none" xmlns="http://www.w3.org/2000/svg">
<path d="M12.3096 0H23.549L23.5328 9.3745C23.5328 9.42797 23.5116 9.47925 23.4738 9.51706C23.436 9.55486 23.3847 9.5761 23.3312 9.5761H19.404C19.3505 9.5761 19.2993 9.55486 19.2615 9.51706C19.2236 9.47925 19.2024 9.42797 19.2024 9.3745V4.13083C19.2024 4.07736 19.1812 4.02608 19.1434 3.98827C19.1056 3.95047 19.0543 3.92923 19.0008 3.92923L9.50535 3.93326C9.28224 3.93326 9.2399 3.8459 9.37834 3.67118L12.3096 0Z" fill="#CF4187"/>
<path d="M53.1845 0H71.7823C72.0296 0.112897 72.1747 0.217058 72.2178 0.312483C74.8157 5.98826 77.413 11.666 80.0097 17.3458C80.0259 17.3819 80.0522 17.4123 80.0856 17.4335C80.1189 17.4546 80.1577 17.4655 80.1972 17.4648L82.0761 17.4245C82.1142 17.4238 82.1512 17.4125 82.183 17.3918C82.2147 17.3711 82.2399 17.3419 82.2555 17.3075L90.0212 0.249987C90.0343 0.22123 90.0541 0.195882 90.0789 0.17594C90.1038 0.155998 90.133 0.142008 90.1644 0.135073C90.9788 -0.0302403 91.9969 0.100801 92.6078 0.100801C109.459 0.0994571 126.31 0.100129 143.162 0.102817C146.353 0.102817 149.363 1.61282 149.712 4.99369C149.859 6.42372 149.579 7.68171 148.869 8.76768C148.132 9.89531 147.022 10.6365 145.538 10.9913C145.237 11.0639 145.227 11.1647 145.508 11.2938C146.406 11.7117 147.11 12.3139 147.621 13.1001C147.774 13.3353 148.161 14.217 148.78 15.7451C149.515 17.5582 150.255 19.3699 151 21.1803V21.2932L146.163 21.3779C146.122 21.3786 146.081 21.3661 146.047 21.3423C146.012 21.3184 145.986 21.2843 145.972 21.2448C145.48 19.9102 144.992 18.622 144.508 17.3801C143 13.5114 142.391 12.3179 138.192 12.3038C135.589 12.2944 132.987 12.2937 130.386 12.3018C130.333 12.3018 130.281 12.323 130.243 12.3608C130.206 12.3986 130.184 12.4499 130.184 12.5034V21.1178C130.184 21.1713 130.163 21.2226 130.125 21.2604C130.088 21.2982 130.036 21.3194 129.983 21.3194H125.82C125.767 21.3194 125.716 21.2982 125.678 21.2605C125.64 21.2227 125.619 21.1715 125.618 21.1178L125.606 8.57011C125.606 8.54373 125.611 8.51756 125.621 8.49311C125.631 8.46867 125.646 8.44643 125.664 8.42768C125.683 8.40893 125.705 8.39405 125.73 8.38389C125.755 8.37374 125.781 8.36851 125.808 8.3685C131.463 8.36716 137.004 8.3638 142.43 8.35843C145.857 8.35641 145.93 3.93931 142.117 3.93729C125.894 3.92654 109.671 3.92721 93.4485 3.93931C93.41 3.93926 93.3723 3.95004 93.3399 3.97038C93.3074 3.99072 93.2814 4.01979 93.265 4.05422L85.0981 21.2529C85.0817 21.2873 85.0558 21.3164 85.0233 21.3367C84.9908 21.3571 84.9531 21.3679 84.9147 21.3678L77.7679 21.3698C77.4601 21.3698 77.2417 21.2354 77.1127 20.9666L68.9276 4.05422C68.9112 4.02032 68.8855 3.99174 68.8534 3.97176C68.8213 3.95179 68.7841 3.94124 68.7462 3.94132C64.1443 3.93191 59.5383 3.92721 54.9284 3.92721C51.737 3.92721 49.5698 5.45132 48.8883 8.72131C48.221 11.9207 49.0093 16.0294 52.4386 17.1987C52.9883 17.3868 53.79 17.4843 54.8437 17.491C59.4456 17.5206 64.0461 17.5407 68.6454 17.5515C68.6988 17.5515 68.7501 17.5727 68.7879 17.6105C68.8257 17.6483 68.847 17.6996 68.847 17.7531V21.1662C68.847 21.2197 68.8257 21.271 68.7879 21.3088C68.7501 21.3466 68.6988 21.3678 68.6454 21.3678C57.9403 21.3705 47.2392 21.3698 36.5422 21.3658C32.0284 21.3638 28.2342 17.9144 28.0669 13.3582C27.9889 11.2131 27.9728 6.86052 28.0185 0.300387C28.0185 0.247454 28.0397 0.196688 28.0775 0.159258C28.1154 0.121829 28.1666 0.100801 28.2201 0.100801H32.4658C32.4925 0.100803 32.5189 0.106033 32.5435 0.11619C32.568 0.126348 32.5904 0.14123 32.6091 0.159977C32.6279 0.178724 32.6427 0.200964 32.6527 0.225411C32.6627 0.249857 32.6677 0.276026 32.6674 0.302403C32.6459 4.0643 32.6513 7.82284 32.6836 11.578C32.7138 15.1827 34.3407 17.5212 38.3063 17.5354C41.2564 17.5461 43.6514 17.5387 45.4914 17.5132C45.7266 17.5105 45.783 17.4083 45.6607 17.2067C44.9081 15.9635 44.4551 14.7653 44.3019 13.6122C44.0943 12.0336 44.1205 9.44708 44.2878 8.03586C44.8261 3.52401 48.7573 0.346756 53.1845 0Z" fill="#2F3165"/>
<path d="M68.4073 8.26562H53.5613C53.5134 8.26562 53.4746 8.30444 53.4746 8.35231V12.0094C53.4746 12.0573 53.5134 12.0961 53.5613 12.0961H68.4073C68.4552 12.0961 68.494 12.0573 68.494 12.0094V8.35231C68.494 8.30444 68.4552 8.26562 68.4073 8.26562Z" fill="#2F3165"/>
<path d="M101.021 12.3077C101.083 13.4744 101.478 14.5328 102.206 15.483C103.672 17.3942 105.246 17.5313 107.77 17.5333C112.117 17.5373 116.464 17.542 120.812 17.5474C120.866 17.5474 120.917 17.5686 120.955 17.6064C120.992 17.6442 121.014 17.6955 121.014 17.749L121.008 21.1641C121.008 21.2171 120.986 21.2678 120.949 21.3053C120.911 21.3427 120.86 21.3637 120.806 21.3637C115.745 21.3718 110.69 21.3577 105.642 21.3214C100.666 21.2851 96.7267 17.6885 96.384 12.7896C96.2913 11.4724 96.294 10.0276 96.3921 8.45513C96.3952 8.40379 96.4177 8.35556 96.4552 8.32033C96.4927 8.2851 96.5422 8.26553 96.5937 8.26563H120.51C120.563 8.26563 120.614 8.28687 120.652 8.32467C120.69 8.36248 120.711 8.41376 120.711 8.46723L120.705 11.8945C120.705 11.9479 120.684 11.9992 120.646 12.037C120.608 12.0748 120.557 12.0961 120.504 12.0961H101.222C101.195 12.096 101.168 12.1016 101.143 12.1123C101.118 12.1231 101.095 12.1388 101.076 12.1586C101.057 12.1784 101.043 12.2019 101.033 12.2275C101.024 12.2531 101.019 12.2804 101.021 12.3077Z" fill="#2F3165"/>
<path d="M0 15.4607V15.4103L3.68529 10.8078C3.87883 10.5658 3.97425 10.5994 3.97156 10.9086C3.96484 11.8521 4.11537 12.7976 4.42315 13.7451C5.50979 17.1078 7.75765 17.5332 11.0659 17.5352C15.1047 17.5392 19.1441 17.5413 23.1842 17.5413C23.2377 17.5413 23.289 17.5625 23.3268 17.6003C23.3646 17.6381 23.3858 17.6894 23.3858 17.7429V21.16C23.3858 21.2131 23.3647 21.2641 23.3269 21.3019C23.2892 21.3396 23.2379 21.3611 23.1842 21.3616C18.8175 21.3697 14.4549 21.373 10.0962 21.3717C8.47132 21.3717 7.26104 21.2756 6.46538 21.0834C3.46285 20.3617 1.30773 18.4875 0 15.4607Z" fill="#2F3165"/>
<path d="M68.6418 34.5768C67.9644 32.9559 68.6035 30.8613 70.3635 30.1073C72.0596 29.3802 73.7343 29.4097 75.3874 30.196C75.4129 30.2083 75.4355 30.2258 75.4539 30.2473C75.4722 30.2688 75.4858 30.2939 75.4938 30.3209C75.5018 30.3479 75.504 30.3762 75.5002 30.404C75.4965 30.4318 75.4869 30.4585 75.4721 30.4823L75.0165 31.2282C74.9915 31.2701 74.9522 31.3014 74.9057 31.3163C74.8593 31.3311 74.8091 31.3285 74.7644 31.3088C73.8021 30.8841 72.8055 30.7873 71.7747 31.0185C70.1195 31.3875 69.3212 33.1333 70.3252 34.5607C71.3009 35.9477 73.6375 35.7743 74.9681 35.0929C75.0136 35.0699 75.0662 35.065 75.1152 35.0792C75.1642 35.0934 75.206 35.1257 75.2322 35.1695L75.7039 35.9497C75.7181 35.9732 75.7273 35.9993 75.7309 36.0265C75.7346 36.0537 75.7327 36.0813 75.7254 36.1078C75.718 36.1342 75.7054 36.1588 75.6881 36.1802C75.6709 36.2015 75.6495 36.2191 75.6253 36.232C73.4419 37.371 69.7708 37.2823 68.6418 34.5768Z" fill="#CF4187"/>
<path d="M101.464 34.3894C100.359 31.0973 103.734 28.92 106.607 29.7223C108.503 30.2519 109.441 31.4145 109.419 33.2101C109.365 37.6675 102.756 38.2461 101.464 34.3894ZM108.008 33.2331C108.006 32.5968 107.725 31.9876 107.227 31.5394C106.729 31.0912 106.054 30.8408 105.352 30.8433C104.65 30.8457 103.978 31.1008 103.483 31.5525C102.988 32.0041 102.712 32.6153 102.714 33.2515C102.716 33.8878 102.997 34.497 103.495 34.9452C103.993 35.3934 104.667 35.6438 105.369 35.6414C106.071 35.6389 106.744 35.3838 107.238 34.9322C107.733 34.4805 108.01 33.8693 108.008 33.2331Z" fill="#CF4187"/>
<path d="M121.394 33.6856C120.963 30.1313 124.84 28.8189 127.501 30.0003C129.557 30.9156 130.098 33.617 128.862 35.3669C126.975 38.0362 121.824 37.2418 121.394 33.6856ZM128.086 33.2421C128.086 32.6063 127.807 31.9966 127.31 31.5471C126.814 31.0976 126.141 30.845 125.439 30.845C124.737 30.845 124.063 31.0976 123.567 31.5471C123.07 31.9966 122.792 32.6063 122.792 33.2421C122.792 33.8778 123.07 34.4875 123.567 34.937C124.063 35.3866 124.737 35.6391 125.439 35.6391C126.141 35.6391 126.814 35.3866 127.31 34.937C127.807 34.4875 128.086 33.8778 128.086 33.2421Z" fill="#CF4187"/>
<path d="M139.249 34.2443C139.26 34.2134 139.264 34.1802 139.26 34.1475C139.256 34.1149 139.244 34.0837 139.225 34.0568C139.207 34.0298 139.182 34.0078 139.153 33.9927C139.124 33.9776 139.092 33.9699 139.059 33.9701H137.039C136.986 33.9701 136.934 33.9488 136.896 33.911C136.859 33.8732 136.837 33.8219 136.837 33.7685V32.9621C136.837 32.9086 136.859 32.8573 136.896 32.8195C136.934 32.7817 136.986 32.7605 137.039 32.7605H140.464C140.512 32.7605 140.558 32.7778 140.594 32.8092C140.631 32.8406 140.655 32.8841 140.662 32.9318C141.309 37.1493 135.424 38.1352 133.259 35.4156C131.965 33.7886 132.366 31.2908 134.172 30.2364C135.731 29.3292 137.759 29.4179 139.42 30.1376C139.446 30.1491 139.47 30.1661 139.489 30.1877C139.509 30.2092 139.523 30.2347 139.532 30.2624C139.54 30.2901 139.543 30.3194 139.539 30.3483C139.536 30.3772 139.526 30.4051 139.511 30.4299L139.031 31.2041C139.006 31.2452 138.967 31.2759 138.921 31.2907C138.875 31.3055 138.825 31.3034 138.781 31.2847C137.198 30.6114 134.307 30.6436 134.045 32.9177C133.805 35.0003 135.884 35.8732 137.597 35.5668C138.417 35.4203 138.968 34.9794 139.249 34.2443Z" fill="#CF4187"/>
<path d="M51.5701 30.946H49.1308C49.1067 30.946 49.0836 30.9364 49.0666 30.9194C49.0496 30.9024 49.04 30.8793 49.04 30.8553V29.7707C49.04 29.7466 49.0496 29.7235 49.0666 29.7065C49.0836 29.6895 49.1067 29.6799 49.1308 29.6799L55.6748 29.686C55.6988 29.686 55.7219 29.6955 55.7389 29.7126C55.7559 29.7296 55.7655 29.7526 55.7655 29.7767L55.7695 30.8553C55.7695 30.8793 55.76 30.9024 55.7429 30.9194C55.7259 30.9364 55.7029 30.946 55.6788 30.946H53.2132C53.1891 30.946 53.1661 30.9556 53.1491 30.9726C53.132 30.9896 53.1225 31.0127 53.1225 31.0367V36.7521C53.1225 36.7762 53.1129 36.7993 53.0959 36.8163C53.0789 36.8333 53.0558 36.8429 53.0318 36.8429H51.7516C51.7275 36.8429 51.7045 36.8333 51.6874 36.8163C51.6704 36.7993 51.6609 36.7762 51.6609 36.7521V31.0367C51.6609 31.0127 51.6513 30.9896 51.6343 30.9726C51.6173 30.9556 51.5942 30.946 51.5701 30.946Z" fill="#CF4187"/>
<path d="M60.7202 35.5324H65.2482C65.26 35.5324 65.2717 35.5348 65.2826 35.5393C65.2935 35.5439 65.3034 35.5506 65.3117 35.5591C65.3199 35.5675 65.3264 35.5776 65.3308 35.5886C65.3351 35.5996 65.3372 35.6113 65.3369 35.6231L65.3228 36.7561C65.3223 36.7793 65.3127 36.8013 65.2961 36.8176C65.2796 36.8338 65.2573 36.8428 65.2341 36.8428H59.2586C59.2351 36.8428 59.2125 36.8335 59.1959 36.8168C59.1793 36.8002 59.1699 36.7776 59.1699 36.7541V29.7464C59.1699 29.7229 59.1793 29.7003 59.1959 29.6837C59.2125 29.6671 59.2351 29.6577 59.2586 29.6577L65.1716 29.6738C65.1951 29.6738 65.2177 29.6832 65.2343 29.6998C65.251 29.7165 65.2603 29.739 65.2603 29.7625L65.2623 30.8572C65.2623 30.8808 65.253 30.9033 65.2364 30.92C65.2197 30.9366 65.1972 30.946 65.1736 30.946H60.7202C60.6967 30.946 60.6742 30.9553 60.6575 30.9719C60.6409 30.9886 60.6315 31.0111 60.6315 31.0347V32.2725C60.6315 32.296 60.6409 32.3186 60.6575 32.3352C60.6742 32.3519 60.6967 32.3612 60.7202 32.3612L64.6253 32.3552C64.6488 32.3552 64.6714 32.3645 64.688 32.3811C64.7046 32.3978 64.714 32.4203 64.714 32.4439V33.4781C64.714 33.5016 64.7046 33.5242 64.688 33.5408C64.6714 33.5574 64.6488 33.5668 64.6253 33.5668H60.7202C60.6967 33.5668 60.6742 33.5761 60.6575 33.5928C60.6409 33.6094 60.6315 33.632 60.6315 33.6555V35.4437C60.6315 35.4672 60.6409 35.4898 60.6575 35.5064C60.6742 35.5231 60.6967 35.5324 60.7202 35.5324Z" fill="#CF4187"/>
<path d="M79.3783 29.6979L80.5899 29.6596C80.6044 29.6593 80.6187 29.6619 80.6322 29.6673C80.6456 29.6726 80.6579 29.6806 80.6682 29.6908C80.6785 29.7009 80.6867 29.713 80.6923 29.7263C80.6979 29.7397 80.7008 29.754 80.7008 29.7685L80.6867 31.4397C80.6864 31.4542 80.689 31.4686 80.6944 31.482C80.6997 31.4955 80.7077 31.5077 80.7178 31.518C80.728 31.5283 80.7401 31.5365 80.7534 31.5421C80.7667 31.5477 80.7811 31.5506 80.7955 31.5506H85.0171C85.046 31.5506 85.0736 31.5392 85.0941 31.5187C85.1145 31.4983 85.1259 31.4706 85.1259 31.4418V29.7402C85.1259 29.7258 85.1288 29.7114 85.1344 29.6981C85.14 29.6848 85.1482 29.6727 85.1585 29.6625C85.1689 29.6524 85.1811 29.6444 85.1945 29.6391C85.208 29.6337 85.2224 29.6311 85.2368 29.6314L86.4807 29.6656C86.5092 29.6662 86.5364 29.6779 86.5564 29.6982C86.5764 29.7186 86.5876 29.746 86.5876 29.7745V36.7338C86.5876 36.7627 86.5761 36.7904 86.5557 36.8108C86.5353 36.8312 86.5076 36.8427 86.4787 36.8427H85.2348C85.2059 36.8427 85.1783 36.8312 85.1578 36.8108C85.1374 36.7904 85.1259 36.7627 85.1259 36.7338V32.8691C85.1259 32.8402 85.1145 32.8125 85.0941 32.7921C85.0736 32.7717 85.046 32.7602 85.0171 32.7602H80.7935C80.7646 32.7602 80.737 32.7717 80.7165 32.7921C80.6961 32.8125 80.6847 32.8402 80.6847 32.8691L80.7048 36.7338C80.7048 36.7481 80.702 36.7623 80.6965 36.7755C80.6911 36.7887 80.683 36.8007 80.6729 36.8108C80.6628 36.8209 80.6508 36.8289 80.6376 36.8344C80.6244 36.8399 80.6102 36.8427 80.5959 36.8427H79.3863C79.3575 36.8427 79.3298 36.8312 79.3094 36.8108C79.2889 36.7904 79.2775 36.7627 79.2775 36.7338L79.2734 29.8068C79.2734 29.7786 79.2843 29.7515 79.3039 29.7312C79.3234 29.7109 79.3501 29.6989 79.3783 29.6979Z" fill="#CF4187"/>
<path d="M96.3656 31.6252V29.833C96.3656 29.8062 96.371 29.7796 96.3813 29.7549C96.3917 29.7302 96.4069 29.7078 96.4261 29.689C96.4452 29.6702 96.4679 29.6555 96.4929 29.6456C96.5178 29.6357 96.5444 29.6309 96.5712 29.6314L97.6297 29.6556C97.6824 29.6566 97.7327 29.6783 97.7696 29.716C97.8066 29.7537 97.8272 29.8044 97.8272 29.8572V36.6411C97.8272 36.6946 97.806 36.7458 97.7682 36.7837C97.7304 36.8215 97.6791 36.8427 97.6256 36.8427H96.5672C96.5137 36.8427 96.4625 36.8215 96.4247 36.7837C96.3869 36.7458 96.3656 36.6946 96.3656 36.6411V33.6695C96.3655 33.6329 96.3553 33.5971 96.3361 33.5658C96.3169 33.5345 96.2895 33.509 96.2567 33.4921L92.2247 31.3873C92.1939 31.3714 92.1596 31.3637 92.125 31.3649C92.0903 31.3661 92.0566 31.3762 92.027 31.3942C91.9975 31.4122 91.973 31.4376 91.9561 31.4678C91.9392 31.498 91.9303 31.5321 91.9304 31.5668V36.6411C91.9304 36.6946 91.9091 36.7458 91.8713 36.7837C91.8335 36.8215 91.7822 36.8427 91.7288 36.8427H90.6704C90.6169 36.8427 90.5656 36.8215 90.5278 36.7837C90.49 36.7458 90.4688 36.6946 90.4688 36.6411V29.8854C90.4686 29.8346 90.4879 29.7856 90.5226 29.7483C90.5574 29.7109 90.6051 29.6879 90.6562 29.6838C90.9519 29.6623 91.2456 29.6563 91.5372 29.6657C91.8383 29.6751 92.14 29.7618 92.4424 29.9257C93.6386 30.5816 94.8496 31.2086 96.0753 31.8067C96.1061 31.8218 96.1402 31.8287 96.1744 31.827C96.2086 31.8252 96.2418 31.8148 96.2709 31.7966C96.2999 31.7784 96.3239 31.7532 96.3404 31.7232C96.357 31.6932 96.3657 31.6595 96.3656 31.6252Z" fill="#CF4187"/>
<path d="M114.474 35.5323H118.377C118.407 35.5323 118.437 35.5444 118.458 35.5659C118.48 35.5875 118.492 35.6167 118.492 35.6472V36.7278C118.492 36.7582 118.48 36.7875 118.458 36.809C118.437 36.8306 118.407 36.8427 118.377 36.8427H113.012C112.982 36.8427 112.953 36.8306 112.931 36.809C112.91 36.7875 112.897 36.7582 112.897 36.7278V29.7463C112.897 29.731 112.9 29.7159 112.906 29.7018C112.912 29.6878 112.921 29.675 112.932 29.6643C112.943 29.6536 112.956 29.6452 112.97 29.6395C112.984 29.6339 112.999 29.6311 113.014 29.6314L114.246 29.6636C114.276 29.6642 114.305 29.6765 114.326 29.698C114.347 29.7195 114.359 29.7484 114.359 29.7785V35.4173C114.359 35.4478 114.371 35.4771 114.393 35.4986C114.414 35.5202 114.444 35.5323 114.474 35.5323Z" fill="#CF4187"/>
<path d="M147.289 33.3934L149.23 29.7525C149.247 29.7192 149.274 29.6915 149.306 29.6726C149.338 29.6537 149.375 29.6443 149.411 29.6456L150.585 29.6678C150.62 29.6684 150.654 29.6781 150.684 29.696C150.715 29.7139 150.74 29.7394 150.757 29.77C150.774 29.8005 150.783 29.8351 150.783 29.8702C150.783 29.9053 150.774 29.9398 150.756 29.9702L147.901 34.9538C147.884 34.9847 147.875 35.0183 147.875 35.0546V36.6311C147.875 36.6843 147.854 36.7352 147.817 36.773C147.78 36.8107 147.729 36.8322 147.676 36.8327L146.609 36.8469C146.561 36.8476 146.515 36.8311 146.478 36.8005C146.441 36.7698 146.416 36.727 146.408 36.6795C146.323 36.1876 146.327 35.7011 146.42 35.2199C146.43 35.1719 146.422 35.1216 146.397 35.0788L143.444 29.9682C143.426 29.9378 143.417 29.9033 143.417 29.8682C143.417 29.8331 143.426 29.7985 143.443 29.768C143.461 29.7374 143.486 29.7119 143.516 29.694C143.546 29.6761 143.58 29.6663 143.615 29.6658L144.791 29.6476C144.828 29.647 144.864 29.6565 144.896 29.6749C144.928 29.6934 144.954 29.7202 144.972 29.7525L146.934 33.3934C147.052 33.6138 147.17 33.6138 147.289 33.3934Z" fill="#CF4187"/>
<path d="M80.9315 48.1829H79.8227C78.6467 48.0861 77.5009 47.7737 76.3854 47.2455C76.3592 47.233 76.3361 47.215 76.3175 47.1928C76.2989 47.1706 76.2853 47.1447 76.2777 47.1167C76.27 47.0888 76.2685 47.0596 76.2731 47.031C76.2778 47.0024 76.2886 46.9752 76.3047 46.9511L76.8773 46.0923C76.9053 46.0505 76.9479 46.0208 76.9968 46.0088C77.0457 45.9969 77.0972 46.0036 77.1414 46.0278C78.6749 46.8584 80.3005 47.0822 82.0181 46.6991C82.416 46.6104 82.6834 46.388 82.8205 46.0318C83.0826 45.3544 82.3891 44.9956 81.7964 44.9734C80.1594 44.9129 76.2382 46.0056 76.5587 42.8949C76.8511 40.0704 81.8004 40.8143 83.4878 41.4776C83.5147 41.4881 83.539 41.5042 83.5591 41.5248C83.5792 41.5455 83.5947 41.5702 83.6044 41.5973C83.6141 41.6245 83.618 41.6534 83.6156 41.6821C83.6132 41.7108 83.6047 41.7387 83.5906 41.7639L83.1229 42.5965C83.0993 42.6393 83.0609 42.672 83.0148 42.6884C82.9687 42.7048 82.9182 42.7036 82.8729 42.6852C81.8891 42.2921 78.8409 41.6026 78.1635 42.7739C77.9148 43.2013 78.1749 43.5568 78.9437 43.8404C78.9793 43.8536 79.0184 43.8564 79.0566 43.8485C80.2843 43.5904 82.6794 43.292 83.7156 44.0964C84.772 44.9149 84.5321 46.6306 83.4475 47.4168C82.8306 47.863 81.9919 48.1184 80.9315 48.1829Z" fill="#CF4187"/>
<path d="M126.998 48.1829L126.143 48.1769C121.45 48.0257 120.552 42.024 125.193 40.9535C126.496 40.6524 127.815 40.8151 129.151 41.4414C129.176 41.4532 129.199 41.4703 129.218 41.4916C129.237 41.5128 129.251 41.5378 129.259 41.5647C129.267 41.5917 129.27 41.6202 129.267 41.6483C129.263 41.6763 129.254 41.7034 129.24 41.7276L128.79 42.4776C128.765 42.5195 128.725 42.5509 128.679 42.566C128.633 42.5812 128.583 42.5792 128.538 42.5603C127.342 42.0502 125.661 41.895 124.564 42.6973C123.635 43.3767 123.399 44.6206 123.968 45.6065C124.98 47.3604 127.215 46.9169 128.768 46.3564C128.812 46.3405 128.86 46.3404 128.904 46.3562C128.949 46.372 128.986 46.4028 129.01 46.4431L129.459 47.2032C129.473 47.2262 129.483 47.2519 129.486 47.2787C129.49 47.3055 129.488 47.3329 129.481 47.3591C129.474 47.3853 129.462 47.4098 129.445 47.4312C129.428 47.4525 129.407 47.4703 129.383 47.4834C128.638 47.8852 127.843 48.1184 126.998 48.1829Z" fill="#CF4187"/>
<path d="M146.956 48.1829H145.847C144.633 48.0942 143.49 47.7763 142.416 47.2293C142.391 47.2165 142.368 47.1985 142.35 47.1764C142.332 47.1543 142.32 47.1286 142.312 47.101C142.305 47.0734 142.304 47.0445 142.308 47.0162C142.313 46.988 142.324 46.961 142.339 46.937L142.9 46.0963C142.927 46.0544 142.969 46.0242 143.018 46.0119C143.066 45.9996 143.118 46.006 143.162 46.0298C144.655 46.8376 146.242 47.0667 147.924 46.7173C148.893 46.5157 149.363 45.2294 148.224 45.0036C147.147 44.7899 145.837 45.304 144.567 45.1427C141.678 44.7718 142.154 41.4272 144.609 40.9897C146.293 40.69 147.926 40.8533 149.508 41.4796C149.535 41.49 149.559 41.506 149.578 41.5264C149.598 41.5469 149.613 41.5714 149.623 41.5983C149.632 41.6252 149.636 41.6539 149.634 41.6824C149.631 41.711 149.623 41.7388 149.609 41.7639L149.153 42.5925C149.13 42.6354 149.091 42.6682 149.045 42.6849C148.999 42.7016 148.949 42.701 148.903 42.6832C147.893 42.2881 144.869 41.6026 144.186 42.7719C143.863 43.3263 144.416 43.7134 144.936 43.7416C146.637 43.8344 148.645 43.0824 149.843 44.1972C150.488 44.796 150.561 45.8403 150.188 46.5782C149.635 47.6749 148.123 48.1244 146.956 48.1829Z" fill="#CF4187"/>
<path d="M93.3917 43.7195V44.7537C93.3917 44.7799 93.3813 44.805 93.3628 44.8236C93.3443 44.8421 93.3191 44.8525 93.2929 44.8525L89.4081 44.8364C89.3951 44.8364 89.3822 44.8389 89.3703 44.8439C89.3583 44.8489 89.3474 44.8561 89.3382 44.8653C89.329 44.8745 89.3218 44.8854 89.3168 44.8974C89.3118 44.9093 89.3093 44.9222 89.3093 44.9352V46.7254C89.3093 46.7384 89.3118 46.7512 89.3168 46.7632C89.3218 46.7752 89.329 46.7861 89.3382 46.7952C89.3474 46.8044 89.3583 46.8117 89.3703 46.8167C89.3822 46.8216 89.3951 46.8242 89.4081 46.8242L93.9481 46.8201C93.9743 46.8201 93.9995 46.8305 94.018 46.8491C94.0365 46.8676 94.0469 46.8927 94.0469 46.9189V47.9834C94.0469 48.0096 94.0365 48.0347 94.018 48.0532C93.9995 48.0718 93.9743 48.0822 93.9481 48.0822H87.9464C87.9202 48.0822 87.8951 48.0718 87.8766 48.0532C87.8581 48.0347 87.8477 48.0096 87.8477 47.9834V41.0241C87.8477 40.9979 87.8581 40.9728 87.8766 40.9542C87.8951 40.9357 87.9202 40.9253 87.9464 40.9253H93.8473C93.8735 40.9253 93.8987 40.9357 93.9172 40.9542C93.9357 40.9728 93.9461 40.9979 93.9461 41.0241V42.0906C93.9461 42.1168 93.9357 42.1419 93.9172 42.1604C93.8987 42.1789 93.8735 42.1893 93.8473 42.1893L89.4081 42.1833C89.3951 42.1833 89.3822 42.1858 89.3703 42.1908C89.3583 42.1958 89.3474 42.2031 89.3382 42.2122C89.329 42.2214 89.3218 42.2323 89.3168 42.2443C89.3118 42.2563 89.3093 42.2691 89.3093 42.2821V43.5461C89.3093 43.5591 89.3118 43.5719 89.3168 43.5839C89.3218 43.5959 89.329 43.6068 89.3382 43.616C89.3474 43.6251 89.3583 43.6324 89.3703 43.6374C89.3822 43.6424 89.3951 43.6449 89.4081 43.6449L93.2929 43.6207C93.3191 43.6207 93.3443 43.6311 93.3628 43.6496C93.3813 43.6682 93.3917 43.6933 93.3917 43.7195Z" fill="#CF4187"/>
<path d="M102.902 46.0217L104.097 47.7676C104.241 47.9773 104.185 48.0821 103.93 48.0821H102.615C102.582 48.0821 102.549 48.0738 102.52 48.058C102.491 48.0421 102.466 48.0192 102.448 47.9914L101.249 46.1548C101.23 46.1269 101.205 46.104 101.175 46.0882C101.146 46.0724 101.113 46.0641 101.079 46.0641L99.1358 46.056C99.1092 46.056 99.0828 46.0613 99.0582 46.0715C99.0336 46.0818 99.0113 46.0968 98.9926 46.1158C98.9738 46.1347 98.959 46.1572 98.949 46.1819C98.939 46.2066 98.934 46.233 98.9342 46.2596L98.9423 47.8805C98.9426 47.9071 98.9375 47.9334 98.9275 47.958C98.9175 47.9826 98.9026 48.0049 98.8839 48.0237C98.8651 48.0424 98.8428 48.0573 98.8182 48.0673C98.7936 48.0773 98.7673 48.0824 98.7407 48.0821L97.7065 48.0801C97.6528 48.0796 97.6016 48.0579 97.5638 48.0197C97.5261 47.9816 97.5049 47.9301 97.5049 47.8765L97.521 41.1268C97.521 41.0734 97.5423 41.0221 97.5801 40.9843C97.6179 40.9465 97.6691 40.9252 97.7226 40.9252C98.9269 40.9239 100.138 40.9246 101.355 40.9272C103.206 40.9313 104.777 42.0582 104.267 44.1025C104.088 44.8202 103.656 45.3632 102.972 45.7314C102.948 45.7445 102.926 45.7628 102.909 45.785C102.891 45.8072 102.879 45.8328 102.872 45.8602C102.866 45.8876 102.865 45.9161 102.87 45.9439C102.875 45.9718 102.886 45.9983 102.902 46.0217ZM98.9685 42.4493L98.9927 44.5742C98.993 44.6007 98.9985 44.6269 99.009 44.6512C99.0194 44.6756 99.0347 44.6977 99.0538 44.7162C99.0729 44.7347 99.0955 44.7494 99.1203 44.7593C99.1451 44.7691 99.1716 44.7741 99.1983 44.7738C99.83 44.7644 100.463 44.7557 101.097 44.7476C101.608 44.7409 101.978 44.6703 102.206 44.5359C102.966 44.0924 103.037 42.5864 102.101 42.3385C101.261 42.1167 100.275 42.0865 99.1419 42.2477C99.0933 42.255 99.049 42.2795 99.0172 42.3165C98.9853 42.3535 98.968 42.4007 98.9685 42.4493Z" fill="#CF4187"/>
<path d="M110.863 46.2295L113.024 40.9636C113.029 40.9523 113.037 40.9426 113.047 40.9357C113.057 40.9289 113.069 40.9253 113.081 40.9253H114.569C114.579 40.9251 114.589 40.9275 114.598 40.9322C114.607 40.9369 114.614 40.9438 114.62 40.9522C114.626 40.9607 114.629 40.9704 114.63 40.9804C114.631 40.9905 114.629 41.0007 114.625 41.01L111.549 48.0459C111.544 48.0568 111.536 48.0661 111.526 48.0726C111.516 48.079 111.504 48.0824 111.492 48.0822H110.127C110.115 48.0824 110.104 48.079 110.094 48.0726C110.084 48.0661 110.076 48.0568 110.071 48.0459L106.992 41.01C106.988 41.0007 106.987 40.9905 106.988 40.9804C106.988 40.9704 106.992 40.9607 106.997 40.9522C107.003 40.9438 107.011 40.9369 107.02 40.9322C107.029 40.9275 107.039 40.9251 107.049 40.9253H108.541C108.553 40.9253 108.565 40.9289 108.575 40.9357C108.585 40.9426 108.593 40.9523 108.597 40.9636L110.75 46.2295C110.755 46.2409 110.762 46.2507 110.772 46.2576C110.783 46.2645 110.794 46.2682 110.807 46.2682C110.819 46.2682 110.831 46.2645 110.841 46.2576C110.851 46.2507 110.859 46.2409 110.863 46.2295Z" fill="#CF4187"/>
<path d="M118.78 40.9272H117.49C117.446 40.9272 117.411 40.9624 117.411 41.0059V48.0015C117.411 48.0449 117.446 48.0801 117.49 48.0801H118.78C118.823 48.0801 118.859 48.0449 118.859 48.0015V41.0059C118.859 40.9624 118.823 40.9272 118.78 40.9272Z" fill="#CF4187"/>
<path d="M134.577 46.8242L139.097 46.8201C139.126 46.8201 139.154 46.8316 139.174 46.852C139.195 46.8724 139.206 46.9001 139.206 46.929V47.9733C139.206 48.0022 139.195 48.0299 139.174 48.0503C139.154 48.0707 139.126 48.0822 139.097 48.0822H133.116C133.087 48.0822 133.059 48.0707 133.039 48.0503C133.018 48.0299 133.007 48.0022 133.007 47.9733V41.0342C133.007 41.0053 133.018 40.9776 133.039 40.9572C133.059 40.9368 133.087 40.9253 133.116 40.9253H139C139.015 40.9253 139.029 40.9282 139.043 40.9338C139.056 40.9394 139.068 40.9476 139.078 40.9579C139.088 40.9682 139.096 40.9805 139.102 40.9939C139.107 41.0073 139.11 41.0217 139.109 41.0362L139.095 42.0825C139.095 42.111 139.083 42.1382 139.063 42.1582C139.042 42.1782 139.015 42.1893 138.986 42.1893L134.577 42.1833C134.548 42.1833 134.521 42.1948 134.5 42.2152C134.48 42.2356 134.468 42.2633 134.468 42.2922V43.532C134.468 43.5609 134.48 43.5886 134.5 43.609C134.521 43.6294 134.548 43.6409 134.577 43.6409L138.434 43.6308C138.462 43.6308 138.489 43.6417 138.51 43.6612C138.53 43.6808 138.542 43.7075 138.543 43.7356L138.577 44.7376C138.578 44.7522 138.575 44.7668 138.57 44.7805C138.565 44.7942 138.557 44.8067 138.547 44.8172C138.537 44.8277 138.524 44.8361 138.511 44.8418C138.497 44.8476 138.483 44.8505 138.468 44.8505L134.577 44.8364C134.548 44.8364 134.521 44.8478 134.5 44.8683C134.48 44.8887 134.468 44.9164 134.468 44.9452V46.7153C134.468 46.7442 134.48 46.7719 134.5 46.7923C134.521 46.8127 134.548 46.8242 134.577 46.8242Z" fill="#CF4187"/>
</svg>
